<svg width="120" height="30" viewBox="0 0 170 40" fill="none"
                        xmlns="http://www.w3.org/2000/svg">
                        <path
                            d="M17.8872 20C17.8872 18.7727 18.8883 17.7778 20.1231 17.7778C21.358 17.7778 22.359 18.7727 22.359 20V37.7778C22.359 39.0051 21.358 40 20.1231 40C18.8883 40 17.8872 39.0051 17.8872 37.7778V20Z"
                            fill="#FF5E34"></path>
                        <path fill-rule="evenodd" clip-rule="evenodd"
                            d="M39.4071 18.2647C40.3713 19.0314 40.5277 20.4298 39.7563 21.3882L33.7188 28.8889H39.4071C40.6419 28.8889 41.643 29.8838 41.643 31.1111V37.7778C41.643 39.0051 40.6419 40 39.4071 40C38.1722 40 37.1712 39.0051 37.1712 37.7778V33.3333H29.0667C28.2072 33.3333 27.4238 32.8437 27.0515 32.0737C26.6792 31.3038 26.7839 30.3899 27.3208 29.7229L36.2644 18.6118C37.0358 17.6534 38.4428 17.498 39.4071 18.2647Z"
                            fill="#FF5E34"></path>
                        <path fill-rule="evenodd" clip-rule="evenodd"
                            d="M28.3708 33.223C32.8152 30.4788 35.7744 25.5829 35.7744 20C35.7744 19.7462 35.7683 19.4939 35.7562 19.2431L36.2644 18.6118C37.0358 17.6534 38.4428 17.498 39.4071 18.2647C39.9527 18.6986 40.2397 19.3347 40.2462 19.9788C40.2464 19.994 40.2464 20.0092 40.2462 20.0243C40.2413 20.5036 40.0809 20.9849 39.7563 21.3882L33.7188 28.8889H38.1545C37.3455 30.5069 36.3224 32.0006 35.1222 33.3333H29.0667C28.8263 33.3333 28.5919 33.295 28.3708 33.223ZM31.1046 17.9074C30.1198 12.7713 25.5776 8.88889 20.1231 8.88889C13.9488 8.88889 8.9436 13.8635 8.9436 20C8.9436 23.6352 10.7 26.8626 13.4154 28.8897V20C13.4154 16.3181 16.4185 13.3333 20.1231 13.3333C23.8277 13.3333 26.8308 16.3181 26.8308 20V23.217L31.1046 17.9074ZM34.6594 14.2227C32.3517 8.49227 26.713 4.44444 20.1231 4.44444C11.4791 4.44444 4.4718 11.4089 4.4718 20C4.4718 26.2053 8.12762 31.562 13.4154 34.0586V37.7778C13.4154 38.1584 13.4475 38.5315 13.5091 38.8946C5.64444 36.1755 0 28.7429 0 20C0 8.95431 9.00942 0 20.1231 0C28.9197 0 36.3981 5.60983 39.134 13.4263C37.605 13.1696 36.0164 13.4458 34.6594 14.2227ZM20.1184 40H20.1231C21.358 40 22.359 39.0051 22.359 37.7778V35.398C21.6288 35.5018 20.8822 35.5556 20.1231 35.5556C19.364 35.5556 18.6175 35.5018 17.8872 35.398V37.7778C17.8872 39.0035 18.8857 39.9975 20.1184 40ZM17.8872 30.8888V26.2873C18.5865 26.533 19.3391 26.6667 20.1231 26.6667C20.9071 26.6667 21.6597 26.533 22.359 26.2873V30.8888C21.6366 31.0346 20.8888 31.1111 20.1231 31.1111C19.3574 31.1111 18.6096 31.0346 17.8872 30.8888Z"
                            fill="#FF5E34"></path>
                        <path
                            d="M69.6276 16.9321C69.6276 18.096 69.3453 19.1872 68.7807 20.2056C68.237 21.224 67.3692 22.0449 66.1772 22.6684C65.0062 23.2919 63.5214 23.6037 61.723 23.6037H58.0531V29.7764C58.0531 30.9817 57.07 31.9587 55.8573 31.9587C54.6447 31.9587 53.6616 30.9817 53.6616 29.7765V13.2132C53.6616 11.5481 55.0198 10.1982 56.6952 10.1982H61.723C63.4169 10.1982 64.8598 10.4892 66.0518 11.0711C67.2437 11.6531 68.1325 12.4533 68.718 13.4717C69.3244 14.4901 69.6276 15.6436 69.6276 16.9321ZM61.5348 20.0809C62.7477 20.0809 63.6469 19.8107 64.2324 19.2703C64.818 18.7091 65.1107 17.9298 65.1107 16.9321C65.1107 14.8122 63.9188 13.7522 61.5348 13.7522H58.0531V20.0809H61.5348Z"
                            fill="white"></path>
                        <path
                            d="M78.1093 32.2393C76.4364 32.2393 74.9308 31.8756 73.5924 31.1482C72.2541 30.4 71.1981 29.3504 70.4243 27.9994C69.6715 26.6485 69.2951 25.0897 69.2951 23.3231C69.2951 21.5565 69.682 19.9977 70.4557 18.6468C71.2503 17.2959 72.3273 16.2567 73.6865 15.5292C75.0458 14.781 76.5619 14.4069 78.2348 14.4069C79.9077 14.4069 81.4238 14.781 82.7831 15.5292C84.1423 16.2567 85.2088 17.2959 85.9826 18.6468C86.7772 19.9977 87.1745 21.5565 87.1745 23.3231C87.1745 25.0897 86.7667 26.6485 85.9512 27.9994C85.1565 29.3504 84.0691 30.4 82.689 31.1482C81.3297 31.8756 79.8032 32.2393 78.1093 32.2393ZM78.1093 28.4359C78.904 28.4359 79.6463 28.2489 80.3364 27.8747C81.0474 27.4799 81.612 26.8979 82.0303 26.1289C82.4485 25.3599 82.6576 24.4247 82.6576 23.3231C82.6576 21.6812 82.2185 20.4238 81.3402 19.5509C80.4828 18.6572 79.4268 18.2103 78.1721 18.2103C76.9174 18.2103 75.8613 18.6572 75.004 19.5509C74.1675 20.4238 73.7493 21.6812 73.7493 23.3231C73.7493 24.965 74.157 26.2328 74.9726 27.1265C75.8091 27.9994 76.8546 28.4359 78.1093 28.4359Z"
                            fill="white"></path>
                        <path
                            d="M87.855 23.2608C87.855 21.5149 88.2001 19.9666 88.8902 18.6156C89.6012 17.2647 90.5631 16.2255 91.776 15.4981C92.9888 14.7706 94.3376 14.4069 95.8224 14.4069C96.9516 14.4069 98.0285 14.6563 99.0532 15.1551C100.078 15.6332 100.893 16.2775 101.5 17.088V11.1023C101.5 9.87986 102.497 8.88885 103.727 8.88885C104.957 8.88885 105.954 9.87986 105.954 11.1023V29.7453C105.954 30.9677 104.957 31.9587 103.727 31.9587C102.497 31.9587 101.5 30.9677 101.5 29.7453V29.4023C100.956 30.2545 100.193 30.9403 99.21 31.4599C98.2272 31.9795 97.0875 32.2393 95.791 32.2393C94.3272 32.2393 92.9888 31.8652 91.776 31.117C90.5631 30.3688 89.6012 29.3192 88.8902 27.9683C88.2001 26.5965 87.855 25.0274 87.855 23.2608ZM101.531 23.3231C101.531 22.2632 101.322 21.3591 100.904 20.6108C100.486 19.8419 99.921 19.2599 99.21 18.865C98.4991 18.4493 97.7358 18.2415 96.9202 18.2415C96.1047 18.2415 95.3519 18.439 94.6618 18.8338C93.9717 19.2287 93.4071 19.8107 92.9679 20.5797C92.5497 21.3279 92.3406 22.2216 92.3406 23.2608C92.3406 24.3 92.5497 25.2144 92.9679 26.0042C93.4071 26.7732 93.9717 27.3655 94.6618 27.7812C95.3728 28.1969 96.1256 28.4047 96.9202 28.4047C97.7358 28.4047 98.4991 28.2073 99.21 27.8124C99.921 27.3967 100.486 26.8148 100.904 26.0666C101.322 25.2976 101.531 24.3831 101.531 23.3231Z"
                            fill="white"></path>
                        <path
                            d="M107.545 23.3231C107.545 21.5357 107.911 19.9769 108.643 18.6468C109.375 17.2959 110.389 16.2567 111.686 15.5292C112.982 14.781 114.467 14.4069 116.14 14.4069C118.294 14.4069 120.072 14.9473 121.473 16.028C122.126 16.5155 122.681 17.0952 123.136 17.7672C123.995 19.0368 122.839 20.5173 121.299 20.5173C120.279 20.5173 119.44 19.7865 118.699 19.089C118.577 18.9741 118.446 18.8683 118.304 18.7715C117.719 18.335 116.987 18.1168 116.109 18.1168C114.854 18.1168 113.861 18.574 113.129 19.4885C112.397 20.3822 112.031 21.6604 112.031 23.3231C112.031 24.965 112.397 26.2432 113.129 27.1577C113.861 28.0514 114.854 28.4983 116.109 28.4983C117.228 28.4983 118.102 28.1854 118.732 27.5596C119.447 26.8491 120.27 26.1289 121.281 26.1289C122.825 26.1289 123.972 27.6172 123.096 28.8808C122.649 29.5262 122.108 30.095 121.473 30.587C120.051 31.6886 118.273 32.2393 116.14 32.2393C114.467 32.2393 112.982 31.8756 111.686 31.1482C110.389 30.4 109.375 29.3608 108.643 28.0306C107.911 26.6797 107.545 25.1105 107.545 23.3231Z"
                            fill="white"></path>
                        <path
                            d="M124.34 23.2608C124.34 21.5149 124.685 19.9666 125.375 18.6156C126.086 17.2647 127.037 16.2255 128.229 15.4981C129.442 14.7706 130.791 14.4069 132.276 14.4069C133.572 14.4069 134.702 14.6667 135.663 15.1863C136.646 15.7059 137.43 16.3606 138.016 17.1504V16.8854C138.016 15.6715 139.006 14.6875 140.227 14.6875C141.449 14.6875 142.439 15.6715 142.439 16.8854V29.7609C142.439 30.9747 141.449 31.9587 140.227 31.9587C139.006 31.9587 138.016 30.9747 138.016 29.7609V29.4335C137.451 30.2441 136.667 30.9196 135.663 31.4599C134.681 31.9795 133.541 32.2393 132.244 32.2393C130.781 32.2393 129.442 31.8652 128.229 31.117C127.037 30.3688 126.086 29.3192 125.375 27.9683C124.685 26.5965 124.34 25.0274 124.34 23.2608ZM138.016 23.3231C138.016 22.2632 137.807 21.3591 137.389 20.6108C136.97 19.8419 136.406 19.2599 135.695 18.865C134.984 18.4493 134.221 18.2415 133.405 18.2415C132.589 18.2415 131.837 18.439 131.147 18.8338C130.456 19.2287 129.892 19.8107 129.453 20.5797C129.034 21.3279 128.825 22.2216 128.825 23.2608C128.825 24.3 129.034 25.2144 129.453 26.0042C129.892 26.7732 130.456 27.3655 131.147 27.7812C131.858 28.1969 132.61 28.4047 133.405 28.4047C134.221 28.4047 134.984 28.2073 135.695 27.8124C136.406 27.3967 136.97 26.8148 137.389 26.0666C137.807 25.2976 138.016 24.3831 138.016 23.3231Z"
                            fill="white"></path>
                        <path
                            d="M151.966 32.2393C150.544 32.2393 149.269 31.9899 148.139 31.4911C147.01 30.9715 146.111 30.2753 145.442 29.4023C145.293 29.2022 145.16 28.9971 145.042 28.7871C144.404 27.6506 145.496 26.503 146.805 26.503C147.936 26.503 148.878 27.4653 149.77 28.1553C150.356 28.5918 151.077 28.81 151.935 28.81C152.771 28.81 153.42 28.6437 153.88 28.3112C154.361 27.9787 154.601 27.5526 154.601 27.033C154.601 26.4718 154.308 26.0562 153.723 25.786C153.158 25.495 152.248 25.1833 150.994 24.8507C149.697 24.539 148.631 24.2168 147.794 23.8843C146.979 23.5517 146.268 23.0425 145.661 22.3567C145.076 21.6708 144.783 20.7459 144.783 19.5821C144.783 18.626 145.055 17.7531 145.599 16.9633C146.163 16.1735 146.958 15.55 147.983 15.0928C149.028 14.6355 150.251 14.4069 151.653 14.4069C153.723 14.4069 155.375 14.9265 156.609 15.9657C157.273 16.5142 157.777 17.1683 158.12 17.9279C158.623 19.0409 157.592 20.112 156.364 20.112C155.282 20.112 154.428 19.1417 153.566 18.4909C153.064 18.0752 152.384 17.8674 151.527 17.8674C150.732 17.8674 150.116 18.0129 149.676 18.3039C149.258 18.5948 149.049 19.0001 149.049 19.5197C149.049 20.1017 149.342 20.5485 149.927 20.8603C150.513 21.1512 151.422 21.4526 152.656 21.7643C153.911 22.0761 154.946 22.3982 155.762 22.7308C156.577 23.0633 157.278 23.5829 157.863 24.2896C158.47 24.9754 158.783 25.8899 158.804 27.033C158.804 28.0306 158.522 28.9243 157.957 29.7141C157.414 30.5039 156.619 31.1274 155.573 31.5846C154.549 32.0211 153.346 32.2393 151.966 32.2393Z"
                            fill="white"></path>
                        <path
                            d="M166.11 18.2727V26.6277C166.11 27.2097 166.246 27.6357 166.518 27.9059C166.811 28.1553 167.292 28.28 167.961 28.28H168.149C169.171 28.28 170 29.1035 170 30.1194C170 31.1352 169.171 31.9587 168.149 31.9587H167.24C163.538 31.9587 161.688 30.1713 161.688 26.5965V18.2727H161.421C160.425 18.2727 159.617 17.4701 159.617 16.4801C159.617 15.4901 160.425 14.6875 161.421 14.6875H161.688V12.6143C161.688 11.4005 162.678 10.4165 163.899 10.4165C165.12 10.4165 166.11 11.4005 166.11 12.6143V14.6875H168.196C169.192 14.6875 170 15.4901 170 16.4801C170 17.4701 169.192 18.2727 168.196 18.2727H166.11Z"
                            fill="white"></path>
                    </svg>